<svg xmlns="http://www.w3.org/2000/svg" xmlns:xlink="http://www.w3.org/1999/xlink" class="9C_svg__card" height="336" preserveAspectRatio="none" viewBox="-106 -164.5 212 329" width="216"><symbol id="9C_svg__b" viewBox="-600 -600 1200 1200" preserveAspectRatio="xMinYMid"><path d="M30 150c5 235 55 250 100 350h-260c45-100 95-115 100-350a10 10 0 00-20 0 210 210 0 11-74-201 10 10 0 0014-14 230 230 0 11220 0 10 10 0 0014 14 210 210 0 11-74 201 10 10 0 00-20 0z"/></symbol><symbol id="9C_svg__a" viewBox="-500 -500 1000 1000" preserveAspectRatio="xMinYMid"><path d="M250-100a250 250 0 01-500 0v-110a250 250 0 01500 0v420A250 250 0 010 460c-150 0-180-60-200-85" stroke="#000" stroke-width="80" stroke-linecap="square" stroke-miterlimit="1.5" fill="none"/></symbol><rect width="211" height="328" x="-105.5" y="-164" rx="12" ry="12" fill="#fff" stroke="#000"/><use xlink:href="#9C_svg__a" height="32" x="-100.4" y="-152.5"/><use xlink:href="#9C_svg__b" height="26.769" x="-97.784" y="-115.5"/><use xlink:href="#9C_svg__b" height="54" x="-72.167" y="-130.735"/><use xlink:href="#9C_svg__b" height="54" x="18.167" y="-130.735"/><use xlink:href="#9C_svg__b" height="54" x="-72.167" y="-61.578"/><use xlink:href="#9C_svg__b" height="54" x="18.167" y="-61.578"/><use xlink:href="#9C_svg__b" height="54" x="-27" y="-32.4"/><g transform="rotate(180)"><use xlink:href="#9C_svg__a" height="32" x="-100.4" y="-152.5"/><use xlink:href="#9C_svg__b" height="26.769" x="-97.784" y="-115.5"/><use xlink:href="#9C_svg__b" height="54" x="-72.167" y="-130.735"/><use xlink:href="#9C_svg__b" height="54" x="18.167" y="-130.735"/><use xlink:href="#9C_svg__b" height="54" x="-72.167" y="-61.578"/><use xlink:href="#9C_svg__b" height="54" x="18.167" y="-61.578"/></g></svg>