<svg xmlns="http://www.w3.org/2000/svg" xmlns:xlink="http://www.w3.org/1999/xlink" class="9H_svg__card" height="336" preserveAspectRatio="none" viewBox="-106 -164.5 212 329" width="216"><symbol id="9H_svg__b" viewBox="-600 -600 1200 1200" preserveAspectRatio="xMinYMid"><path d="M0-300c0-100 100-200 200-200s200 100 200 250C400 0 0 400 0 500 0 400-400 0-400-250c0-150 100-250 200-250S0-400 0-300z" fill="red"/></symbol><symbol id="9H_svg__a" viewBox="-500 -500 1000 1000" preserveAspectRatio="xMinYMid"><path d="M250-100a250 250 0 01-500 0v-110a250 250 0 01500 0v420A250 250 0 010 460c-150 0-180-60-200-85" stroke="red" stroke-width="80" stroke-linecap="square" stroke-miterlimit="1.5" fill="none"/></symbol><rect width="211" height="328" x="-105.5" y="-164" rx="12" ry="12" fill="#fff" stroke="#000"/><use xlink:href="#9H_svg__a" height="32" x="-100.4" y="-152.5"/><use xlink:href="#9H_svg__b" height="26.769" x="-97.784" y="-115.5"/><use xlink:href="#9H_svg__b" height="54" x="-72.167" y="-130.667"/><use xlink:href="#9H_svg__b" height="54" x="18.167" y="-130.667"/><use xlink:href="#9H_svg__b" height="54" x="-72.167" y="-61.555"/><use xlink:href="#9H_svg__b" height="54" x="18.167" y="-61.555"/><use xlink:href="#9H_svg__b" height="54" x="-27" y="-27"/><g transform="rotate(180)"><use xlink:href="#9H_svg__a" height="32" x="-100.4" y="-152.5"/><use xlink:href="#9H_svg__b" height="26.769" x="-97.784" y="-115.5"/><use xlink:href="#9H_svg__b" height="54" x="-72.167" y="-130.667"/><use xlink:href="#9H_svg__b" height="54" x="18.167" y="-130.667"/><use xlink:href="#9H_svg__b" height="54" x="-72.167" y="-61.555"/><use xlink:href="#9H_svg__b" height="54" x="18.167" y="-61.555"/></g></svg>